<svg width="220" height="94" viewBox="0 0 220 94" fill="none" xmlns="http://www.w3.org/2000/svg">
<g clip-path="url(#clip0_7_5663)">
<path d="M73.0481 34.25H62.6816V59.0417L73.0481 34.25Z" fill="#4C4C4D"/>
<path d="M80.3418 34.25H90.6947V59.0417L80.3418 34.25Z" fill="#4C4C4D"/>
<path d="M76.6956 43.3877L83.2936 59.042H78.9647L76.9927 54.058H72.1641L76.6956 43.3877Z" fill="#4C4C4D"/>
<path d="M107.608 50.0143L108.83 53.5194C108.871 53.6071 108.931 53.6477 109.039 53.6477H111.39C111.518 53.6477 111.538 53.5869 111.518 53.4586L106.662 39.9721C106.642 39.864 106.622 39.8438 106.514 39.8438H103.596C103.515 39.8438 103.468 39.9045 103.468 39.9923C103.427 40.7014 103.367 40.9175 103.279 41.1269L98.9498 53.4383C98.9296 53.5869 98.9769 53.6477 99.0984 53.6477H101.199C101.327 53.6477 101.388 53.6071 101.435 53.4788L102.59 50.0143H107.608ZM103.259 47.7249C103.893 45.807 104.731 43.3488 105.068 41.9441H105.089C105.507 43.4163 106.493 46.3338 106.939 47.7249H103.259Z" fill="#4C4C4D"/>
<path d="M117.76 53.8566C119.023 53.8566 120.367 53.627 121.731 53.0394C121.84 52.9989 121.86 52.9516 121.86 52.8503C121.819 52.4721 121.772 51.9251 121.772 51.5064V38.81C121.772 38.729 121.772 38.6885 121.671 38.6885H119.381C119.293 38.6885 119.253 38.729 119.253 38.8371V43.139C118.895 43.0984 118.645 43.0782 118.348 43.0782C114.654 43.0782 112.385 45.5161 112.385 48.5619C112.385 52.0939 114.715 53.8566 117.76 53.8566ZM119.253 51.5064C118.875 51.628 118.456 51.6752 118.031 51.6752C116.356 51.6752 114.985 50.7298 114.985 48.4336C114.985 46.4008 116.396 45.1987 118.267 45.1987C118.645 45.1987 118.976 45.2393 119.253 45.3473V51.5064Z" fill="#4C4C4D"/>
<path d="M129.162 43.0791C126.008 43.0791 124.057 45.4968 124.057 48.4818C124.057 51.1494 125.61 53.8575 129.115 53.8575C132.08 53.8575 134.16 51.6762 134.16 48.4143C134.16 45.5373 132.397 43.0791 129.162 43.0791ZM129.034 45.1997C130.817 45.1997 131.573 46.7327 131.573 48.4818C131.573 50.6429 130.459 51.7167 129.162 51.7167C127.562 51.7167 126.616 50.3728 126.616 48.4345C126.616 46.4423 127.622 45.1997 129.034 45.1997Z" fill="#4C4C4D"/>
<path d="M136.527 38.6885C136.44 38.6885 136.379 38.729 136.379 38.8371V53.2082C136.379 53.269 136.44 53.3771 136.527 53.3973C137.534 53.708 138.587 53.8566 139.675 53.8566C142.788 53.8566 145.813 51.9251 145.813 48.0352C145.813 45.219 143.882 43.0782 140.856 43.0782C140.161 43.0782 139.512 43.1862 138.945 43.3753L138.918 38.8573C138.918 38.7087 138.878 38.6885 138.729 38.6885H136.527ZM143.227 48.2918C143.227 50.6217 141.633 51.7157 139.911 51.7157C139.553 51.7157 139.236 51.6955 138.945 51.6077V45.4756C139.276 45.3473 139.675 45.2393 140.411 45.2393C142.072 45.2393 143.227 46.2928 143.227 48.2918Z" fill="#4C4C4D"/>
<path d="M154.357 49.0491C155.383 49.0491 156.228 49.0288 156.518 48.9613C156.626 48.941 156.667 48.9005 156.687 48.8127C156.748 48.5831 156.775 48.1036 156.775 47.5161C156.775 45.5171 155.573 43.0791 152.466 43.0791C149.292 43.0791 147.529 45.6656 147.529 48.5831C147.529 51.1697 148.893 53.8575 152.716 53.8575C154.148 53.8575 155.073 53.6279 155.87 53.2497C155.951 53.2092 155.991 53.1416 155.991 53.0201V51.271C155.991 51.1697 155.93 51.1494 155.87 51.1899C155.073 51.5276 154.208 51.6964 153.263 51.6964C151.122 51.6964 150.15 50.5146 150.089 49.0491H154.357ZM150.089 47.2392C150.258 46.2127 150.906 45.0984 152.358 45.0984C153.959 45.0984 154.377 46.4423 154.377 47.0501C154.377 47.0703 154.377 47.1581 154.377 47.2189C154.289 47.2392 154.019 47.2392 153.222 47.2392H150.089Z" fill="#4C4C4D"/>
</g>
<defs>
<clipPath id="clip0_7_5663">
<rect width="94.2083" height="34" fill="white" transform="translate(62.6816 30)"/>
</clipPath>
</defs>
</svg>
