<svg width="220" height="94" viewBox="0 0 220 94" fill="none" xmlns="http://www.w3.org/2000/svg">
<g clip-path="url(#clip0_7_5654)">
<path fill-rule="evenodd" clip-rule="evenodd" d="M131.965 44.591C132.23 45.0483 132.317 45.5686 132.346 46.1536L132.383 46.9333V52.3851L132.422 53.1656C132.499 54.4402 133.439 55.3827 134.723 55.4629L135.499 55.5013V46.9333L135.538 46.1536C135.57 45.5752 135.656 45.0451 135.925 44.5845C136.199 44.112 136.593 43.7201 137.066 43.4479C137.54 43.1758 138.077 43.0331 138.623 43.0341C139.17 43.035 139.706 43.1797 140.179 43.4536C140.651 43.7275 141.044 44.1209 141.316 44.5943C141.581 45.0516 141.664 45.5817 141.696 46.1536L141.734 46.9308V52.3851L141.773 53.1656C141.853 54.4468 142.785 55.3892 144.074 55.4629L144.85 55.5013V46.1536C144.85 44.5007 144.194 42.9154 143.025 41.7464C141.857 40.5773 140.272 39.9203 138.619 39.9196C137.734 39.9187 136.859 40.1065 136.053 40.4707C135.247 40.8348 134.528 41.3668 133.943 42.0311C133.359 41.3671 132.64 40.8352 131.833 40.471C131.027 40.1067 130.153 39.9185 129.268 39.9188C127.974 39.9188 126.773 40.3115 125.778 40.9897C125.171 40.3123 123.813 39.9188 123.033 39.9188V55.5013L123.813 55.4629C125.117 55.377 126.059 54.4599 126.11 53.1656L126.152 52.3851V46.9333L126.19 46.1536C126.223 45.5654 126.305 45.0483 126.571 44.5877C126.845 44.1156 127.239 43.7237 127.712 43.4513C128.185 43.1788 128.722 43.0352 129.268 43.035C129.814 43.0351 130.351 43.1789 130.825 43.452C131.298 43.7251 131.691 44.1179 131.965 44.591ZM78.622 55.4637L79.4017 55.5013H91.0884L91.0499 54.7241C90.9444 53.4429 90.0371 52.507 88.7519 52.4236L87.9722 52.3851H80.961L90.3087 43.0341L90.2703 42.2578C90.2097 40.9635 89.264 40.0284 87.9722 39.9572L87.1925 39.9221L75.5059 39.9188L75.5443 40.6984C75.6466 41.9673 76.5669 42.9229 77.8416 42.9965L78.622 43.035H85.6332L76.2855 52.3859L76.324 53.1656C76.4009 54.45 77.3278 55.3802 78.622 55.4629V55.4637ZM119.974 42.1997C120.698 42.9231 121.272 43.7821 121.663 44.7274C122.055 45.6728 122.257 46.686 122.257 47.7092C122.257 48.7325 122.055 49.7457 121.663 50.691C121.272 51.6364 120.698 52.4953 119.974 53.2188C118.512 54.6796 116.53 55.5001 114.463 55.5001C112.397 55.5001 110.415 54.6796 108.953 53.2188C105.91 50.1762 105.91 45.2422 108.953 42.1997C109.676 41.4764 110.534 40.9027 111.479 40.5112C112.423 40.1197 113.436 39.9181 114.458 39.918C115.483 39.9173 116.497 40.1185 117.444 40.5101C118.39 40.9018 119.25 41.4762 119.974 42.2005V42.1997ZM117.769 44.4061C118.646 45.2831 119.138 46.4723 119.138 47.7121C119.138 48.9519 118.646 50.141 117.769 51.0181C116.892 51.8944 115.703 52.3867 114.463 52.3867C113.224 52.3867 112.034 51.8944 111.157 51.0181C110.281 50.141 109.789 48.9519 109.789 47.7121C109.789 46.4723 110.281 45.2831 111.157 44.4061C112.034 43.5297 113.224 43.0375 114.463 43.0375C115.703 43.0375 116.892 43.5297 117.769 44.4061ZM98.1061 39.918C99.1288 39.9182 100.141 40.1199 101.086 40.5116C102.031 40.9032 102.889 41.4771 103.612 42.2005C106.655 45.2422 106.655 50.1771 103.612 53.2188C102.15 54.6796 100.168 55.5001 98.1012 55.5001C96.0345 55.5001 94.0524 54.6796 92.5904 53.2188C89.5479 50.1762 89.5479 45.2422 92.5904 42.1997C93.3134 41.4764 94.1717 40.9027 95.1164 40.5112C96.0611 40.1197 97.0737 39.9181 98.0963 39.918H98.1061ZM101.407 44.4045C102.284 45.2815 102.776 46.4708 102.776 47.7109C102.776 48.9509 102.284 50.1402 101.407 51.0173C100.53 51.8936 99.341 52.3859 98.1012 52.3859C96.8614 52.3859 95.6722 51.8936 94.7952 51.0173C93.9189 50.1402 93.4266 48.9511 93.4266 47.7113C93.4266 46.4714 93.9189 45.2823 94.7952 44.4053C95.6722 43.5289 96.8614 43.0366 98.1012 43.0366C99.341 43.0366 100.53 43.5289 101.407 44.4053V44.4045Z" fill="#4C4C4D"/>
</g>
<defs>
<clipPath id="clip0_7_5654">
<rect width="69.4166" height="34" fill="white" transform="translate(75.5059 30)"/>
</clipPath>
</defs>
</svg>
