<svg width="220" height="94" viewBox="0 0 220 94" fill="none" xmlns="http://www.w3.org/2000/svg">
<g clip-path="url(#clip0_7_5678)">
<path d="M81.8567 56.9623C80.6739 57.17 79.4702 57.2323 78.2251 57.3982L74.4274 46.2752V57.8755C73.2446 58 72.1655 58.166 71.0449 58.332V37.082H74.1993L78.5156 49.1391V37.082H81.8567V56.9623ZM88.3936 44.864C89.6803 44.864 91.6517 44.8017 92.8345 44.8017V48.122C91.361 48.122 89.6387 48.122 88.3936 48.1843V53.1233C90.3443 52.9988 92.295 52.8327 94.2663 52.7704V55.966L85.0732 56.6925V37.082H94.2663V40.4023H88.3936V44.864ZM106.614 40.4024H103.169V55.6758C102.048 55.6758 100.928 55.6758 99.8488 55.7172V40.4024H96.404V37.082H106.614L106.614 40.4024ZM112.009 44.6358H116.554V47.956H112.009V55.4891H108.751V37.082H118.027V40.4023H112.009V44.6358ZM123.423 52.5837C125.311 52.6251 127.22 52.7706 129.067 52.8742V56.1531C126.1 55.9662 123.132 55.7797 120.103 55.7172V37.082H123.423V52.5837ZM131.869 56.3813C132.927 56.4437 134.048 56.506 135.127 56.6303V37.082H131.869V56.3813ZM149.674 37.082L145.461 47.1883L149.674 58.332C148.429 58.166 147.184 57.9377 145.939 57.7302L143.552 51.5877L141.124 57.2323C139.921 57.0246 138.759 56.9623 137.555 56.7963L141.83 47.0636L137.97 37.082H141.539L143.718 42.6643L146.043 37.082H149.674V37.082Z" fill="#4C4C4D"/>
</g>
<defs>
<clipPath id="clip0_7_5678">
<rect width="78.625" height="34" fill="white" transform="translate(71.0449 30)"/>
</clipPath>
</defs>
</svg>
