<svg width="220" height="94" viewBox="0 0 220 94" fill="none" xmlns="http://www.w3.org/2000/svg">
<g clip-path="url(#clip0_7_5674)">
<path d="M96.2122 54.6319V44.3221H96.3959L103.9 54.6319H106.262V39.4918H103.638V49.7756H103.454L95.9498 39.4918H93.5882V54.6319H96.2122ZM113.688 54.8656C117.151 54.8656 119.277 52.6323 119.277 48.8927C119.277 45.1791 117.151 42.9197 113.688 42.9197C110.25 42.9197 108.099 45.1791 108.099 48.8927C108.125 52.6323 110.224 54.8656 113.688 54.8656ZM113.688 52.6842C111.851 52.6842 110.801 51.3078 110.801 48.8927C110.801 46.5035 111.851 45.1011 113.688 45.1011C115.525 45.1011 116.574 46.5035 116.574 48.8927C116.574 51.3078 115.525 52.6842 113.688 52.6842ZM121.665 40.3488V43.2314H119.828V45.3089H121.665V51.5675C121.665 53.8009 122.714 54.6838 125.391 54.6838C125.889 54.6838 126.388 54.6319 126.781 54.554V52.5284C126.467 52.5544 126.257 52.5803 125.889 52.5803C124.787 52.5803 124.289 52.0869 124.289 50.9443V45.3089H126.781V43.2314H124.289V40.3488H121.665ZM128.356 54.6319H130.98V43.1534H128.356V54.6319ZM129.668 41.2577C130.534 41.2577 131.242 40.5565 131.242 39.6995C131.242 38.8166 130.534 38.1154 129.668 38.1154C128.802 38.1154 128.093 38.8166 128.093 39.6995C128.093 40.5565 128.802 41.2577 129.668 41.2577ZM138.169 54.8656C141.633 54.8656 143.759 52.6323 143.759 48.8927C143.759 45.1791 141.633 42.9197 138.169 42.9197C134.732 42.9197 132.58 45.1791 132.58 48.8927C132.58 52.6323 134.68 54.8656 138.169 54.8656ZM138.169 52.6842C136.333 52.6842 135.283 51.3078 135.283 48.8927C135.283 46.5035 136.333 45.1011 138.169 45.1011C139.98 45.1011 141.056 46.5035 141.056 48.8927C141.03 51.3078 139.98 52.6842 138.169 52.6842ZM145.307 54.6319H147.931V47.9578C147.931 46.2698 148.928 45.205 150.476 45.205C152.077 45.205 152.811 46.088 152.811 47.8279V54.6319H155.435V47.2047C155.435 44.4519 154.018 42.9197 151.447 42.9197C149.715 42.9197 148.56 43.6988 148.009 44.9973H147.826V43.1534H145.28C145.307 43.1534 145.307 54.6319 145.307 54.6319Z" fill="#4C4C4D"/>
<path fill-rule="evenodd" clip-rule="evenodd" d="M68.4289 38.5227C69.1926 39.1388 69.4688 39.0902 70.8987 38.9929L84.3693 38.1823C84.6618 38.1823 84.418 37.8904 84.3205 37.858L82.0781 36.2529C81.6557 35.9286 81.0707 35.5395 79.982 35.6368L66.9502 36.5933C66.479 36.642 66.3815 36.8852 66.5764 37.0635L68.4289 38.5227ZM69.2413 41.6519V55.79C69.2413 56.552 69.615 56.8276 70.4762 56.779L85.2792 55.9197C86.1404 55.871 86.2379 55.3522 86.2379 54.7361V40.6953C86.2379 40.0792 85.9942 39.7387 85.4742 39.7874L70.005 40.6953C69.4363 40.744 69.2413 41.0358 69.2413 41.6519ZM83.8493 42.4139C83.9468 42.8355 83.8493 43.2732 83.4268 43.3219L82.7119 43.4678V53.9092C82.0944 54.2335 81.5257 54.428 81.0382 54.428C80.2745 54.428 80.0795 54.1848 79.5108 53.4715L74.8473 46.1592V53.2283L76.3259 53.5525C76.3259 53.5525 76.3259 54.4118 75.1398 54.4118L71.8574 54.6064C71.7599 54.4118 71.8574 53.9416 72.1824 53.8444L73.0436 53.6012V44.2623L71.8574 44.165C71.7599 43.7434 72.0037 43.1273 72.6699 43.0787L76.1959 42.8355L81.0544 50.2288V43.6948L79.8195 43.5489C79.722 43.0301 80.112 42.6409 80.5832 42.5923L83.8493 42.4139ZM65.8615 35.2963L79.4295 34.3073C81.0869 34.1613 81.5257 34.2586 82.5656 35.0207L86.8879 38.0525C87.6028 38.5714 87.8466 38.7173 87.8466 39.2848V55.9359C87.8466 56.9735 87.4729 57.5896 86.1404 57.6869L70.395 58.6435C69.3876 58.6922 68.9163 58.5462 68.3964 57.8815L65.1953 53.7471C64.6265 52.9851 64.3828 52.4176 64.3828 51.7528V36.95C64.3828 36.0907 64.7728 35.3936 65.8615 35.2963Z" fill="#4C4C4D"/>
</g>
<defs>
<clipPath id="clip0_7_5674">
<rect width="91.375" height="34" fill="white" transform="translate(64.3828 30)"/>
</clipPath>
</defs>
</svg>
