<svg width="220" height="94" viewBox="0 0 220 94" fill="none" xmlns="http://www.w3.org/2000/svg">
<g clip-path="url(#clip0_7_5650)">
<path d="M75.2718 32.1807C67.0565 32.1807 60.3965 38.8405 60.3965 47.0558C60.3965 55.2713 67.0565 61.9307 75.2718 61.9307C83.4879 61.9307 90.1472 55.2713 90.1472 47.0558C90.1472 38.8411 83.4879 32.1814 75.2716 32.1814L75.2718 32.1807ZM82.0935 53.6348C81.827 54.0718 81.2551 54.2103 80.8181 53.9421C77.3255 51.8088 72.9288 51.3256 67.7509 52.5086C67.2519 52.6223 66.7546 52.3097 66.6409 51.8106C66.5267 51.3114 66.8381 50.814 67.3383 50.7004C73.0047 49.4058 77.8652 49.9632 81.7862 52.3594C82.2231 52.6276 82.3617 53.1978 82.0935 53.6348ZM83.9142 49.5845C83.5785 50.1302 82.8644 50.3025 82.3191 49.9668C78.3206 47.5091 72.2256 46.7973 67.4962 48.2329C66.8828 48.4182 66.235 48.0725 66.0489 47.4602C65.8641 46.8469 66.21 46.2003 66.8223 46.0138C72.2245 44.3746 78.9405 45.1686 83.5323 47.9903C84.0776 48.326 84.2499 49.0401 83.9142 49.5847V49.5845ZM84.0705 45.3668C79.2763 42.5193 71.3664 42.2574 66.789 43.6467C66.054 43.8696 65.2767 43.4547 65.0539 42.7196C64.8312 41.9842 65.2458 41.2075 65.9814 40.984C71.2358 39.3889 79.9708 39.6971 85.4905 42.9738C86.153 43.3662 86.3697 44.2201 85.9772 44.8803C85.5864 45.5415 84.7302 45.7594 84.0712 45.3668H84.0705ZM100.867 45.9125C98.2987 45.3001 97.8422 44.8702 97.8422 43.9669C97.8422 43.1136 98.645 42.5393 99.8405 42.5393C100.999 42.5393 102.146 42.9754 103.35 43.8732C103.386 43.9003 103.432 43.9112 103.477 43.9041C103.523 43.8973 103.562 43.8726 103.588 43.8355L104.843 42.0677C104.894 41.9949 104.88 41.8945 104.811 41.8389C103.377 40.6891 101.764 40.1301 99.8778 40.1301C97.105 40.1301 95.167 41.7944 95.167 44.1755C95.167 46.7289 96.8385 47.633 99.7268 48.331C102.183 48.8971 102.599 49.3713 102.599 50.219C102.599 51.1586 101.761 51.7431 100.411 51.7431C98.9115 51.7431 97.6876 51.2368 96.3199 50.0538C96.2861 50.0236 96.2399 50.0112 96.1973 50.0129C96.1511 50.0165 96.1103 50.0378 96.0818 50.0716L94.675 51.7448C94.6164 51.8159 94.6235 51.9189 94.691 51.9793C96.2826 53.4003 98.24 54.1499 100.354 54.1499C103.342 54.1499 105.272 52.5175 105.272 49.9898C105.278 47.857 104.001 46.6758 100.873 45.9148L100.867 45.9125ZM112.033 43.3795C110.738 43.3795 109.676 43.8897 108.798 44.935V43.7584C108.798 43.6655 108.724 43.5898 108.631 43.5898H106.331C106.239 43.5898 106.164 43.6655 106.164 43.7584V56.8322C106.164 56.9245 106.239 57.0009 106.331 57.0009H108.631C108.724 57.0009 108.798 56.9245 108.798 56.8322V52.7058C109.676 53.6881 110.738 54.1695 112.033 54.1695C114.44 54.1695 116.877 52.3168 116.877 48.775C116.881 45.2326 114.443 43.3793 112.035 43.3793L112.033 43.3795ZM114.202 48.775C114.202 50.5778 113.092 51.8372 111.5 51.8372C109.928 51.8372 108.742 50.521 108.742 48.775C108.742 47.0289 109.928 45.713 111.5 45.713C113.065 45.7129 114.202 47.0003 114.202 48.7749V48.775ZM123.121 43.3795C120.021 43.3795 117.593 45.7662 117.593 48.8136C117.593 51.8283 120.005 54.189 123.083 54.189C126.194 54.189 128.629 51.8106 128.629 48.775C128.629 45.7498 126.21 43.3799 123.121 43.3799V43.3795ZM123.121 51.855C121.472 51.855 120.229 50.5298 120.229 48.7741C120.229 47.0105 121.43 45.7306 123.083 45.7306C124.742 45.7306 125.993 47.0552 125.993 48.8127C125.993 50.576 124.785 51.855 123.121 51.855ZM135.248 43.5898H132.716V41.0025C132.716 40.9098 132.642 40.8341 132.549 40.8341H130.249C130.157 40.8341 130.08 40.9098 130.08 41.0025V43.5898H128.975C128.883 43.5898 128.808 43.6655 128.808 43.7584V45.7349C128.808 45.8276 128.883 45.9035 128.975 45.9035H130.08V51.0183C130.08 53.0842 131.109 54.1322 133.139 54.1322C133.963 54.1322 134.647 53.9616 135.292 53.5957C135.345 53.5673 135.377 53.5105 135.377 53.4501V51.5672C135.377 51.5104 135.347 51.4553 135.297 51.4251C135.248 51.3931 135.185 51.3913 135.134 51.418C134.692 51.64 134.263 51.7431 133.784 51.7431C133.047 51.7431 132.716 51.4073 132.716 50.6577V45.9044H135.248C135.34 45.9044 135.414 45.8287 135.414 45.7358V43.7595C135.418 43.6666 135.343 43.5909 135.249 43.5909L135.248 43.5898ZM144.065 43.6V43.2822C144.065 42.3473 144.424 41.9304 145.227 41.9304C145.706 41.9304 146.092 42.0256 146.523 42.1695C146.577 42.1862 146.632 42.1779 146.674 42.1461C146.719 42.1143 146.744 42.0633 146.744 42.0093V40.0713C146.744 39.9973 146.698 39.9317 146.625 39.9099C146.17 39.7743 145.587 39.6353 144.713 39.6353C142.591 39.6353 141.466 40.8314 141.466 43.0932V43.5799H140.361C140.269 43.5799 140.193 43.6556 140.193 43.7483V45.7349C140.193 45.8276 140.269 45.9035 140.361 45.9035H141.466V53.7911C141.466 53.8853 141.543 53.9599 141.635 53.9599H143.934C144.028 53.9599 144.102 53.8853 144.102 53.7911V45.904H146.25L149.54 53.7911C149.167 54.6189 148.799 54.7841 148.298 54.7841C147.893 54.7841 147.465 54.6633 147.03 54.4235C146.989 54.4022 146.939 54.3986 146.896 54.4111C146.852 54.427 146.815 54.459 146.797 54.5016L146.017 56.2122C145.98 56.2939 146.012 56.3881 146.09 56.4307C146.904 56.8712 147.637 57.0595 148.545 57.0595C150.243 57.0595 151.183 56.2673 152.009 54.1393L155.998 43.8302C156.02 43.7783 156.012 43.7197 155.98 43.6737C155.95 43.628 155.899 43.6005 155.844 43.6005H153.449C153.376 43.6005 153.312 43.6461 153.289 43.7135L150.836 50.7181L148.151 43.7088C148.126 43.6437 148.064 43.6005 147.994 43.6005H144.065V43.6ZM138.953 43.5898H136.653C136.56 43.5898 136.484 43.6655 136.484 43.7584V53.7911C136.484 53.8853 136.56 53.9599 136.653 53.9599H138.953C139.045 53.9599 139.122 53.8853 139.122 53.7911V43.7591C139.122 43.6662 139.047 43.5905 138.953 43.5905V43.5898ZM137.816 39.0214C136.905 39.0214 136.166 39.7589 136.166 40.67C136.166 41.5816 136.905 42.32 137.816 42.32C138.727 42.32 139.464 41.5816 139.464 40.67C139.464 39.7591 138.726 39.0214 137.816 39.0214ZM157.963 46.8158C157.053 46.8158 156.345 46.0848 156.345 45.1972C156.345 44.3096 157.062 43.5703 157.972 43.5703C158.881 43.5703 159.59 44.3011 159.59 45.188C159.59 46.0756 158.872 46.8158 157.963 46.8158ZM157.972 43.7312C157.142 43.7312 156.515 44.3902 156.515 45.1972C156.515 46.0038 157.139 46.654 157.963 46.654C158.792 46.654 159.419 45.9955 159.419 45.188C159.419 44.3814 158.796 43.7312 157.972 43.7312ZM158.331 45.3544L158.789 45.9953H158.402L157.989 45.4073H157.636V45.9953H157.313V44.2964H158.069C158.466 44.2964 158.725 44.4984 158.725 44.8384C158.727 45.1169 158.565 45.2871 158.332 45.3544H158.331ZM158.057 44.5879H157.636V45.1253H158.057C158.267 45.1253 158.393 45.0224 158.393 44.8563C158.393 44.6816 158.267 44.5879 158.057 44.5879Z" fill="#4C4C4D"/>
</g>
<defs>
<clipPath id="clip0_7_5650">
<rect width="99.1667" height="34" fill="white" transform="translate(60.3438 30)"/>
</clipPath>
</defs>
</svg>
