<svg width="18" height="15" viewBox="0 0 18 15" fill="none" xmlns="http://www.w3.org/2000/svg">
<path fill-rule="evenodd" clip-rule="evenodd" d="M0.599609 7.50019C0.599609 7.00314 1.00255 6.60019 1.49961 6.60019L14.2651 6.60019L9.27581 1.84894C8.91752 1.50443 8.90634 0.93469 9.25086 0.576396C9.59537 0.218101 10.1651 0.20693 10.5234 0.551444L17.1234 6.85144C17.2999 7.02113 17.3996 7.25538 17.3996 7.50019C17.3996 7.74501 17.2999 7.97926 17.1234 8.14894L10.5234 14.4489C10.1651 14.7935 9.59537 14.7823 9.25086 14.424C8.90635 14.0657 8.91752 13.496 9.27581 13.1514L14.2651 8.40019L1.49961 8.40019C1.00255 8.40019 0.599609 7.99725 0.599609 7.50019Z" fill="white"/>
</svg>
